<svg width="100%" height="100%" viewBox="0 0 32 32" version="1.1" xmlns="http://www.w3.org/2000/svg" xmlns:xlink="http://www.w3.org/1999/xlink" xml:space="preserve" xmlns:serif="http://www.serif.com/" style="fill-rule:evenodd;clip-rule:evenodd;stroke-linejoin:round;stroke-miterlimit:2;">
    <g>
        <path d="M16,29.244C8.697,29.244 2.756,23.303 2.756,16C2.756,8.696 8.697,2.755 16,2.755C23.303,2.755 29.244,8.697 29.244,16C29.244,23.303 23.303,29.244 16,29.244ZM16,4.089C9.432,4.089 4.089,9.433 4.089,16.001C4.089,22.569 9.432,27.911 16,27.911C22.568,27.911 27.911,22.568 27.911,16C27.911,9.432 22.568,4.089 16,4.089Z" style="fill:white;fill-rule:nonzero;"/>
        <path d="M23.996,16.668L15.996,16.668C15.796,16.668 15.649,16.601 15.543,16.481C15.529,16.481 15.529,16.468 15.516,16.455C15.396,16.348 15.329,16.201 15.329,16.001L15.329,8.001C15.329,7.135 16.663,7.148 16.663,8.001L16.663,15.335L23.996,15.335C24.863,15.335 24.863,16.668 23.996,16.668Z" style="fill:white;fill-rule:nonzero;"/>
    </g>
</svg>
