<?xml version="1.0" encoding="UTF-8" standalone="no"?>
<!DOCTYPE svg PUBLIC "-//W3C//DTD SVG 1.1//EN" "http://www.w3.org/Graphics/SVG/1.1/DTD/svg11.dtd">
<svg width="100%" height="100%" viewBox="0 0 32 32" version="1.1" xmlns="http://www.w3.org/2000/svg" xmlns:xlink="http://www.w3.org/1999/xlink" xml:space="preserve" xmlns:serif="http://www.serif.com/" style="fill-rule:evenodd;clip-rule:evenodd;stroke-linejoin:round;stroke-miterlimit:2;">
    <g>
        <g>
            <path d="M16.648,11.669C16.648,10.812 15.315,10.809 15.315,11.669L15.315,19.669C15.315,20.527 16.648,20.529 16.648,19.669L16.648,11.669Z" style="fill:rgb(71,69,84);fill-rule:nonzero;"/>
            <circle cx="15.981" cy="22.316" r="0.667" style="fill:rgb(71,69,84);"/>
        </g>
        <path d="M24.837,27.912L7.161,27.912C5.989,27.912 4.925,27.315 4.316,26.315C3.707,25.315 3.661,24.095 4.199,23.053L13.037,5.895C13.611,4.78 14.747,4.088 16,4.088C17.253,4.088 18.389,4.781 18.964,5.895L27.801,23.053C28.337,24.095 28.295,25.315 27.684,26.315C27.075,27.315 26.009,27.912 24.837,27.912ZM16,5.421C15.236,5.421 14.572,5.827 14.223,6.505L5.384,23.664C5.063,24.289 5.088,25.021 5.455,25.621C5.82,26.221 6.459,26.58 7.161,26.58L24.837,26.58C25.54,26.58 26.179,26.221 26.545,25.621C26.911,25.021 26.937,24.289 26.616,23.665L17.779,6.505C17.428,5.827 16.764,5.421 16,5.421Z" style="fill:rgb(71,69,84);fill-rule:nonzero;"/>
    </g>
</svg>
